<svg width="165" height="54" version="1.1" id="Layer_2" xmlns="http://www.w3.org/2000/svg" xmlns:xlink="http://www.w3.org/1999/xlink" x="0" y="0" viewBox="0 0 80.3 80.3" style="enable-background:new 0 0 80.3 80.3" xml:space="preserve"><style>.st6{fill:#0c2c48}.st21{fill:#f6a09c}</style><circle class="st6" cx="40" cy="40.3" r="40.2"/><path style="fill:#ed6b5a" d="M63.6 56.6H27.8V11.5h25.8l10 10.6z"/><path class="st21" d="M63.6 22.1h-10V11.5zM32 24.2h21.9v2.2H32zM32 32.2h21.9v2.2H32zM32 40.2h21.9v2.2H32zM32 48.2h21.9v2.2H32z"/><g><path class="st6"  d="M70.2 56.1 58.7 44.7c1.5-2.2 2.3-4.9 2.3-7.7 0-7.9-6.3-14.2-14.2-14.3-7.9 0-14.2 6.3-14.3 14.2 0 7.9 6.3 14.2 14.2 14.3 2.6 0 4.9-.7 7-1.8L65.3 61c.5.5 1.3.5 1.7 0l3-3c.6-.6.6-1.4.2-1.9zm-23.4-7.2c-6.6 0-12-5.4-11.9-12 0-6.6 5.4-12 12-11.9 6.6 0 12 5.4 11.9 12 0 6.6-5.4 11.9-12 11.9z"/><circle  transform="matrix(.00265 -1 1 .00265 9.742 83.702)" cx="46.8" cy="37" style="opacity:.21;fill:#fff" r="12"/><path d="M53.7 32.2c-1.4-2.1-3.5-3.5-6-4.1l.3-1.5c2.8.6 5.2 2.3 6.9 4.7l-1.2.9z" style="fill:#fff"/></g><g><defs><circle id="SVGID_9_" cx="40.3" cy="40.1" r="40.2"/></defs><clipPath id="SVGID_2_"><use xlink:href="#SVGID_9_" style="overflow:visible"/></clipPath><path  d="M47.4 85.8 66.3 96l18-30.5c.6-1.3 0-2.9-1.3-3.6-1.1-.6-2.4-.4-3.2.4l1-1.9c.8-1.4.2-3.1-1.2-3.9-1.1-.6-2.4-.4-3.2.4l.5-1c.8-1.4.2-3.1-1.2-3.9-1.1-.6-2.4-.4-3.2.4l.1-.1c.8-1.4.2-3.1-1.2-3.9-1.4-.8-3.1-.2-3.9 1.2l-6.4 11.6.2-.6C61 59 59.5 58 58 58.3c-1.6.3-2.6 1.8-2.3 3.3l1.3 9.2-9.6 15z" style="clip-path:url(#SVGID_2_);fill:#f6a09c"/></g><g><defs><circle id="SVGID_11_" cx="40.3" cy="40" r="40.2"/></defs><clipPath id="SVGID_4_"><use xlink:href="#SVGID_11_" style="overflow:visible"/></clipPath><g style="clip-path:url(#SVGID_4_)"><path class="st6" d="M9.6 60.5v-4c0-5.3 4.3-9.7 9.7-9.7h7.4c5.3 0 9.7 4.3 9.7 9.7v4h2.8v-4c0-6.2-4.5-11.3-10.4-12.3 1.3-1.4 2.1-3.3 2.1-5.4V35c0-4.4-3.6-7.9-7.9-7.9-4.4 0-7.9 3.6-7.9 7.9v3.8c0 2.1.8 4 2.2 5.4-5.9 1-10.4 6.1-10.4 12.3v4h2.7zm8.2-25.4c0-2.8 2.3-5.2 5.2-5.2 2.8 0 5.2 2.3 5.2 5.2v3.8c0 2.8-2.3 5.2-5.2 5.2-2.8 0-5.2-2.3-5.2-5.2v-3.8z"/><path   class="st6" d="M12.3 54h4.1v6.6h-4.1zM30.1 54h4.1v6.6h-4.1z"/><path d="M29.5 38.9c0 3.6-2.9 6.5-6.5 6.5s-6.5-2.9-6.5-6.5v-3.8c0-3.6 2.9-6.5 6.5-6.5s6.5 2.9 6.5 6.5v3.8z" style="fill:#fca886"/><path d="M13.7 60.5v-5.2H15v5.2h16.4v-5.2h1.3v5.2h4.9v-4c0-6.1-5-11.1-11.1-11.1h-7.4C13 45.4 8 50.4 8 56.5v4h5.7z" style="fill:#2384ab"/></g></g></svg>